<?xml version="1.0" encoding="UTF-8" standalone="no" ?>
<!DOCTYPE svg PUBLIC "-//W3C//DTD SVG 1.1//EN" "http://www.w3.org/Graphics/SVG/1.1/DTD/svg11.dtd">
<svg xmlns="http://www.w3.org/2000/svg" xmlns:xlink="http://www.w3.org/1999/xlink" version="1.1" width="184" height="184" viewBox="212 167 184 184" xml:space="preserve">
<desc>Created with Fabric.js 4.6.0</desc>
<defs>
</defs>
<g transform="matrix(1 0 0 1 304.66 259.31)" id="8WOCkB9JkD1MB8qlwue3O"  >
<path style="stroke: rgb(114,70,236); stroke-width: 2; stroke-dasharray: none; stroke-linecap: butt; stroke-dashoffset: 0; stroke-linejoin: miter; stroke-miterlimit: 4; fill: rgb(17,3,55); fill-rule: nonzero; opacity: 1;" vector-effect="non-scaling-stroke"  transform=" translate(-85.22, -85.22)" d="M 0 36.15692 C 0 16.18801 16.188 0 36.15692 0 L 134.28843 0 L 134.28843 0 C 154.25734 0 170.44535000000002 16.188 170.44535000000002 36.15692 L 170.44535000000002 134.28843 L 170.44535000000002 134.28843 C 170.44535000000002 154.25734 154.25735000000003 170.44535000000002 134.28843 170.44535000000002 L 36.15692 170.44535000000002 L 36.15692 170.44535000000002 C 16.18801 170.44535000000002 0 154.25735000000003 0 134.28843 z" stroke-linecap="round" />
</g>
<g transform="matrix(1.96 0 0 3.25 304.66 259.31)" id="WomYGGc1DHIrVKx0y466C"  >
<g style="" vector-effect="non-scaling-stroke"   >
		<g transform="matrix(1 0 0 1 0 0)" id="color_x5F_1"  >
<path style="stroke: none; stroke-width: 1; stroke-dasharray: none; stroke-linecap: butt; stroke-dashoffset: 0; stroke-linejoin: miter; stroke-miterlimit: 4; fill: rgb(179,181,179); fill-rule: nonzero; opacity: 1;" vector-effect="non-scaling-stroke"  transform=" translate(-40, -40)" d="M 60.214 56.561 L 60.214 46.09 L 19.786 46.09 L 19.786 56.56 L 0 40 L 19.786 23.439 L 19.786 33.938 L 60.214 33.938 L 60.214 23.439 L 80 40 L 60.214 56.561 z" stroke-linecap="round" />
</g>
</g>
</g>
</svg>